<svg width="1440" height="421" viewBox="0 0 1440 421" fill="none" xmlns="http://www.w3.org/2000/svg">
<path d="M20.1263 31.5059H16.4784V392.529H20.1263V31.5059Z" fill="url(#paint0_linear)"/>
<path d="M14.1802 31.6759C14.1802 29.9177 16.0406 28.4714 18.3023 28.4714C20.564 28.4714 22.4245 29.9177 22.4245 31.6759C22.4245 33.4341 20.564 34.8803 18.3023 34.8803C16.0406 34.8519 14.1802 33.4341 14.1802 31.6759Z" fill="url(#paint1_linear)"/>
<path d="M46.0265 77.5588H42.3786V346.504H46.0265V77.5588Z" fill="url(#paint2_linear)"/>
<path d="M40.1169 77.7005C40.1169 75.9423 41.9773 74.4961 44.239 74.4961C46.5007 74.4961 48.3612 75.9423 48.3612 77.7005C48.3612 79.4587 46.5372 80.905 44.239 80.905C41.9408 80.905 40.1169 79.4587 40.1169 77.7005Z" fill="url(#paint3_linear)"/>
<path d="M31.8726 34.001H28.2247V390.061H31.8726V34.001Z" fill="url(#paint4_linear)"/>
<path d="M25.9265 34.1424C25.9265 32.3842 27.7869 30.938 30.0486 30.938C32.3103 30.938 34.1707 32.3842 34.1707 34.1424C34.1707 35.9006 32.3103 37.3469 30.0486 37.3469C27.7504 37.3469 25.9265 35.929 25.9265 34.1424Z" fill="url(#paint5_linear)"/>
<path d="M103.481 79.9973H99.8332V344.065H103.481V79.9973Z" fill="url(#paint6_linear)"/>
<path d="M97.535 80.1388C97.535 78.3806 99.3954 76.9343 101.657 76.9343C103.919 76.9343 105.779 78.3806 105.779 80.1388C105.779 81.8969 103.919 83.3432 101.657 83.3432C99.3954 83.3432 97.535 81.9253 97.535 80.1388Z" fill="url(#paint7_linear)"/>
<path d="M165.094 56.6304H161.446V367.432H165.094V56.6304Z" fill="url(#paint8_linear)"/>
<path d="M159.148 56.7721C159.148 55.0139 161.009 53.5676 163.27 53.5676C165.532 53.5676 167.392 55.0139 167.392 56.7721C167.392 58.5302 165.532 59.9765 163.27 59.9765C161.009 59.9765 159.148 58.5586 159.148 56.7721Z" fill="url(#paint9_linear)"/>
<path d="M91.6619 27.876H88.014V396.159H91.6619V27.876Z" fill="url(#paint10_linear)"/>
<path d="M85.7158 28.046C85.7158 26.2878 87.5762 24.8416 89.838 24.8416C92.0997 24.8416 93.9601 26.2878 93.9601 28.046C93.9601 29.8042 92.0997 31.2504 89.838 31.2504C87.5762 31.2221 85.7158 29.8042 85.7158 28.046Z" fill="url(#paint11_linear)"/>
<path d="M113.513 53.2844H109.865V370.778H113.513V53.2844Z" fill="url(#paint12_linear)"/>
<path d="M107.567 53.4261C107.567 51.6679 109.427 50.2217 111.689 50.2217C113.951 50.2217 115.811 51.6679 115.811 53.4261C115.811 55.1843 113.951 56.6305 111.689 56.6305C109.427 56.6305 107.567 55.2127 107.567 53.4261Z" fill="url(#paint13_linear)"/>
<path d="M208.723 87.4558H205.075V336.579H208.723V87.4558Z" fill="url(#paint14_linear)"/>
<path d="M202.814 87.6256C202.814 85.8674 204.674 84.4211 206.936 84.4211C209.198 84.4211 211.058 85.8674 211.058 87.6256C211.058 89.3838 209.198 90.83 206.936 90.83C204.638 90.8016 202.814 89.3838 202.814 87.6256Z" fill="url(#paint15_linear)"/>
<path d="M190.666 88.533H187.018V335.501H190.666V88.533Z" fill="url(#paint16_linear)"/>
<path d="M188.842 91.9071C191.119 91.9071 192.964 90.4725 192.964 88.7027C192.964 86.933 191.119 85.4983 188.842 85.4983C186.566 85.4983 184.72 86.933 184.72 88.7027C184.72 90.4725 186.566 91.9071 188.842 91.9071Z" fill="url(#paint17_linear)"/>
<path d="M286.533 58.5308H282.885V365.504H286.533V58.5308Z" fill="url(#paint18_linear)"/>
<path d="M280.587 58.701C280.587 56.9428 282.448 55.4966 284.709 55.4966C286.971 55.4966 288.831 56.9428 288.831 58.701C288.831 60.4592 286.971 61.9055 284.709 61.9055C282.411 61.8771 280.587 60.4592 280.587 58.701Z" fill="url(#paint19_linear)"/>
<path d="M298.644 77.3887H294.996V346.618H298.644V77.3887Z" fill="url(#paint20_linear)"/>
<path d="M292.735 77.5584C292.735 75.8003 294.595 74.354 296.857 74.354C299.119 74.354 300.979 75.8003 300.979 77.5584C300.979 79.3166 299.119 80.7629 296.857 80.7629C294.559 80.7629 292.735 79.3166 292.735 77.5584Z" fill="url(#paint21_linear)"/>
<path d="M246.698 50.9871H243.05V373.047H246.698V50.9871Z" fill="url(#paint22_linear)"/>
<path d="M240.752 51.1573C240.752 49.3991 242.612 47.9529 244.874 47.9529C247.136 47.9529 248.996 49.3991 248.996 51.1573C248.996 52.9155 247.136 54.3617 244.874 54.3617C242.612 54.3617 240.752 52.9155 240.752 51.1573Z" fill="url(#paint23_linear)"/>
<path d="M358.434 3.06274H354.786V421H358.434V3.06274Z" fill="url(#paint24_linear)"/>
<path d="M352.488 3.20443C352.488 1.44625 354.348 0 356.61 0C358.871 0 360.732 1.44625 360.732 3.20443C360.732 4.96262 358.871 6.40886 356.61 6.40886C354.348 6.40886 352.488 4.96262 352.488 3.20443Z" fill="url(#paint25_linear)"/>
<path d="M371.165 26.5149H367.517V397.52H371.165V26.5149Z" fill="url(#paint26_linear)"/>
<path d="M365.219 26.6847C365.219 24.9265 367.079 23.4802 369.341 23.4802C371.603 23.4802 373.463 24.9265 373.463 26.6847C373.463 28.4428 371.603 29.8891 369.341 29.8891C367.043 29.8607 365.219 28.4428 365.219 26.6847Z" fill="url(#paint27_linear)"/>
<path d="M402.756 14.406H399.108V409.657H402.756V14.406Z" fill="url(#paint28_linear)"/>
<path d="M396.81 14.5475C396.81 12.7893 398.67 11.343 400.932 11.343C403.194 11.343 405.054 12.7893 405.054 14.5475C405.054 16.3056 403.194 17.7519 400.932 17.7519C398.634 17.7519 396.81 16.334 396.81 14.5475Z" fill="url(#paint29_linear)"/>
<path d="M393.381 24.9551H389.733V399.108H393.381V24.9551Z" fill="url(#paint30_linear)"/>
<path d="M387.435 25.0965C387.435 23.3383 389.295 21.8921 391.557 21.8921C393.818 21.8921 395.679 23.3383 395.679 25.0965C395.679 26.8547 393.818 28.3009 391.557 28.3009C389.295 28.3009 387.435 26.8831 387.435 25.0965Z" fill="url(#paint31_linear)"/>
<path d="M375.469 60.1467H371.821V363.915H375.469V60.1467Z" fill="url(#paint32_linear)"/>
<path d="M369.523 60.2884C369.523 58.5302 371.384 57.084 373.645 57.084C375.907 57.084 377.768 58.5302 377.768 60.2884C377.768 62.0466 375.907 63.4928 373.645 63.4928C371.347 63.4928 369.523 62.075 369.523 60.2884Z" fill="url(#paint33_linear)"/>
<path d="M407.133 30.428H403.485V393.606H407.133V30.428Z" fill="url(#paint34_linear)"/>
<path d="M405.309 33.8022C407.586 33.8022 409.431 32.3675 409.431 30.5977C409.431 28.828 407.586 27.3933 405.309 27.3933C403.033 27.3933 401.187 28.828 401.187 30.5977C401.187 32.3675 403.033 33.8022 405.309 33.8022Z" fill="url(#paint35_linear)"/>
<path d="M415.378 81.415H411.73V342.619H415.378V81.415Z" fill="url(#paint36_linear)"/>
<path d="M409.431 81.585C409.431 79.8269 411.292 78.3806 413.554 78.3806C415.815 78.3806 417.676 79.8269 417.676 81.585C417.676 83.3432 415.815 84.7895 413.554 84.7895C411.255 84.7895 409.431 83.3432 409.431 81.585Z" fill="url(#paint37_linear)"/>
<path d="M492.75 49.0593H489.102V374.976H492.75V49.0593Z" fill="url(#paint38_linear)"/>
<path d="M486.804 49.2291C486.804 47.4709 488.664 46.0247 490.926 46.0247C493.188 46.0247 495.048 47.4709 495.048 49.2291C495.048 50.9873 493.188 52.4335 490.926 52.4335C488.664 52.4335 486.804 50.9873 486.804 49.2291Z" fill="url(#paint39_linear)"/>
<path d="M516.023 87.0022H512.376V337.033H516.023V87.0022Z" fill="url(#paint40_linear)"/>
<path d="M510.077 87.1722C510.077 85.414 511.938 83.9678 514.199 83.9678C516.461 83.9678 518.322 85.414 518.322 87.1722C518.322 88.9304 516.461 90.3766 514.199 90.3766C511.938 90.3483 510.077 88.9304 510.077 87.1722Z" fill="url(#paint41_linear)"/>
<path d="M546.52 81.8408H542.872V342.222H546.52V81.8408Z" fill="url(#paint42_linear)"/>
<path d="M544.696 85.1869C546.973 85.1869 548.818 83.7523 548.818 81.9825C548.818 80.2128 546.973 78.7781 544.696 78.7781C542.419 78.7781 540.574 80.2128 540.574 81.9825C540.574 83.7523 542.419 85.1869 544.696 85.1869Z" fill="url(#paint43_linear)"/>
<path d="M595.438 39.6157H591.791V384.418H595.438V39.6157Z" fill="url(#paint44_linear)"/>
<path d="M589.492 39.7855C589.492 38.0273 591.316 36.5811 593.615 36.5811C595.876 36.5811 597.737 38.0273 597.737 39.7855C597.737 41.5437 595.876 42.9899 593.615 42.9899C591.353 42.9616 589.492 41.5437 589.492 39.7855Z" fill="url(#paint45_linear)"/>
<path d="M641.548 4.16846H637.9V419.865H641.548V4.16846Z" fill="url(#paint46_linear)"/>
<path d="M639.724 7.5429C642.001 7.5429 643.846 6.10823 643.846 4.33847C643.846 2.56871 642.001 1.13403 639.724 1.13403C637.448 1.13403 635.602 2.56871 635.602 4.33847C635.602 6.10823 637.448 7.5429 639.724 7.5429Z" fill="url(#paint47_linear)"/>
<path d="M652.711 53.7664H649.063V370.268H652.711V53.7664Z" fill="url(#paint48_linear)"/>
<path d="M646.765 53.9364C646.765 52.1782 648.625 50.7319 650.887 50.7319C653.148 50.7319 655.009 52.1782 655.009 53.9364C655.009 55.6946 653.148 57.1408 650.887 57.1408C648.625 57.1124 646.765 55.6946 646.765 53.9364Z" fill="url(#paint49_linear)"/>
<path d="M662.852 28.5564H659.204V395.506H662.852V28.5564Z" fill="url(#paint50_linear)"/>
<path d="M656.942 28.6981C656.942 26.9399 658.803 25.4937 661.064 25.4937C663.326 25.4937 665.187 26.9115 665.187 28.6981C665.187 30.4563 663.326 31.9025 661.064 31.9025C658.766 31.9025 656.942 30.4846 656.942 28.6981Z" fill="url(#paint51_linear)"/>
<path d="M669.637 74.9785H665.989V349.085H669.637V74.9785Z" fill="url(#paint52_linear)"/>
<path d="M663.691 75.1202C663.691 73.362 665.551 71.9158 667.813 71.9158C670.075 71.9158 671.935 73.362 671.935 75.1202C671.935 76.8784 670.075 78.3246 667.813 78.3246C665.551 78.3246 663.691 76.9067 663.691 75.1202Z" fill="url(#paint53_linear)"/>
<path d="M728.259 9.0752H724.611V414.989H728.259V9.0752Z" fill="url(#paint54_linear)"/>
<path d="M726.435 12.4211C728.712 12.4211 730.557 10.9864 730.557 9.21664C730.557 7.44688 728.712 6.01221 726.435 6.01221C724.158 6.01221 722.313 7.44688 722.313 9.21664C722.313 10.9864 724.158 12.4211 726.435 12.4211Z" fill="url(#paint55_linear)"/>
<path d="M740.078 65.166H736.43V358.896H740.078V65.166Z" fill="url(#paint56_linear)"/>
<path d="M734.132 65.3077C734.132 63.5495 735.993 62.1033 738.254 62.1033C740.516 62.1033 742.376 63.5495 742.376 65.3077C742.376 67.0659 740.516 68.5121 738.254 68.5121C735.956 68.5121 734.132 67.0659 734.132 65.3077Z" fill="url(#paint57_linear)"/>
<path d="M786.297 85.187H782.649V338.876H786.297V85.187Z" fill="url(#paint58_linear)"/>
<path d="M780.351 85.3285C780.351 83.5703 782.212 82.124 784.473 82.124C786.735 82.124 788.595 83.5703 788.595 85.3285C788.595 87.0866 786.735 88.5329 784.473 88.5329C782.212 88.5329 780.351 87.115 780.351 85.3285Z" fill="url(#paint59_linear)"/>
<path d="M741.319 4.19678H737.671V419.837H741.319V4.19678Z" fill="url(#paint60_linear)"/>
<path d="M739.495 7.57146C741.771 7.57146 743.617 6.13679 743.617 4.36703C743.617 2.59727 741.771 1.1626 739.495 1.1626C737.218 1.1626 735.372 2.59727 735.372 4.36703C735.372 6.13679 737.218 7.57146 739.495 7.57146Z" fill="url(#paint61_linear)"/>
<path d="M800.889 46.0247H797.241V378.038H800.889V46.0247Z" fill="url(#paint62_linear)"/>
<path d="M799.065 49.3708C801.342 49.3708 803.187 47.9361 803.187 46.1663C803.187 44.3966 801.342 42.9619 799.065 42.9619C796.788 42.9619 794.943 44.3966 794.943 46.1663C794.943 47.9361 796.788 49.3708 799.065 49.3708Z" fill="url(#paint63_linear)"/>
<path d="M856.082 41.0054H852.434V383.057H856.082V41.0054Z" fill="url(#paint64_linear)"/>
<path d="M850.136 41.1468C850.136 39.3886 851.996 37.9424 854.258 37.9424C856.52 37.9424 858.38 39.3886 858.38 41.1468C858.38 42.905 856.52 44.3512 854.258 44.3512C851.996 44.3512 850.136 42.9334 850.136 41.1468Z" fill="url(#paint65_linear)"/>
<path d="M887.199 24.2175H883.551V399.788H887.199V24.2175Z" fill="url(#paint66_linear)"/>
<path d="M881.289 24.3878C881.289 22.6296 883.149 21.1833 885.411 21.1833C887.673 21.1833 889.533 22.6296 889.533 24.3878C889.533 26.146 887.673 27.5922 885.411 27.5922C883.113 27.5922 881.289 26.146 881.289 24.3878Z" fill="url(#paint67_linear)"/>
<path d="M816.575 15.0015H812.927V409.005H816.575V15.0015Z" fill="url(#paint68_linear)"/>
<path d="M810.629 15.1712C810.629 13.413 812.489 11.9668 814.751 11.9668C817.013 11.9668 818.873 13.413 818.873 15.1712C818.873 16.9294 817.013 18.3757 814.751 18.3757C812.489 18.3757 810.629 16.9294 810.629 15.1712Z" fill="url(#paint69_linear)"/>
<path d="M888.621 86.4062H884.973V337.6H888.621V86.4062Z" fill="url(#paint70_linear)"/>
<path d="M882.711 86.576C882.711 84.8178 884.572 83.3716 886.834 83.3716C889.095 83.3716 890.956 84.8178 890.956 86.576C890.956 88.3342 889.095 89.7804 886.834 89.7804C884.535 89.7804 882.711 88.3342 882.711 86.576Z" fill="url(#paint71_linear)"/>
<path d="M877.751 63.522H874.103V360.513H877.751V63.522Z" fill="url(#paint72_linear)"/>
<path d="M871.841 63.6917C871.841 61.9335 873.701 60.4873 875.963 60.4873C878.225 60.4873 880.085 61.9335 880.085 63.6917C880.085 65.4499 878.225 66.8962 875.963 66.8962C873.665 66.8678 871.841 65.4499 871.841 63.6917Z" fill="url(#paint73_linear)"/>
<path d="M951.365 13.8105H947.717V410.196H951.365V13.8105Z" fill="url(#paint74_linear)"/>
<path d="M945.456 13.9806C945.456 12.2224 947.316 10.7761 949.578 10.7761C951.839 10.7761 953.7 12.2224 953.7 13.9806C953.7 15.7387 951.839 17.185 949.578 17.185C947.28 17.185 945.456 15.7387 945.456 13.9806Z" fill="url(#paint75_linear)"/>
<path d="M915.178 89.696H911.53V334.367H915.178V89.696Z" fill="url(#paint76_linear)"/>
<path d="M909.232 89.8375C909.232 88.0793 911.092 86.6331 913.354 86.6331C915.616 86.6331 917.476 88.0793 917.476 89.8375C917.476 91.5957 915.616 93.0419 913.354 93.0419C911.092 93.0419 909.232 91.624 909.232 89.8375Z" fill="url(#paint77_linear)"/>
<path d="M979.783 61.7351H976.135V362.299H979.783V61.7351Z" fill="url(#paint78_linear)"/>
<path d="M973.836 61.9051C973.836 60.1469 975.697 58.7007 977.959 58.7007C980.22 58.7007 982.081 60.1469 982.081 61.9051C982.081 63.6633 980.22 65.1095 977.959 65.1095C975.697 65.1095 973.836 63.6633 973.836 61.9051Z" fill="url(#paint79_linear)"/>
<path d="M986.86 67.0947H983.212V356.968H986.86V67.0947Z" fill="url(#paint80_linear)"/>
<path d="M980.95 67.2364C980.95 65.4782 982.81 64.032 985.072 64.032C987.334 64.032 989.194 65.4782 989.194 67.2364C989.194 68.9946 987.334 70.4408 985.072 70.4408C982.774 70.4408 980.95 69.0229 980.95 67.2364Z" fill="url(#paint81_linear)"/>
<path d="M1062.92 27.9326H1059.27V396.102H1062.92V27.9326Z" fill="url(#paint82_linear)"/>
<path d="M1061.09 31.3073C1063.37 31.3073 1065.22 29.8726 1065.22 28.1029C1065.22 26.3331 1063.37 24.8984 1061.09 24.8984C1058.82 24.8984 1056.97 26.3331 1056.97 28.1029C1056.97 29.8726 1058.82 31.3073 1061.09 31.3073Z" fill="url(#paint83_linear)"/>
<path d="M1017.39 5.72827H1013.74V418.334H1017.39V5.72827Z" fill="url(#paint84_linear)"/>
<path d="M1011.45 5.86996C1011.45 4.11177 1013.31 2.66553 1015.57 2.66553C1017.83 2.66553 1019.69 4.11177 1019.69 5.86996C1019.69 7.62814 1017.83 9.07439 1015.57 9.07439C1013.31 9.07439 1011.45 7.6565 1011.45 5.86996Z" fill="url(#paint85_linear)"/>
<path d="M1059.27 11.4851H1055.62V412.549H1059.27V11.4851Z" fill="url(#paint86_linear)"/>
<path d="M1053.32 11.6549C1053.32 9.89669 1055.18 8.45044 1057.45 8.45044C1059.71 8.45044 1061.57 9.89669 1061.57 11.6549C1061.57 13.4131 1059.71 14.8593 1057.45 14.8593C1055.18 14.8593 1053.32 13.4131 1053.32 11.6549Z" fill="url(#paint87_linear)"/>
<path d="M1163.56 36.071H1159.92V387.963H1163.56V36.071Z" fill="url(#paint88_linear)"/>
<path d="M1157.62 36.241C1157.62 34.4829 1159.48 33.0366 1161.74 33.0366C1164 33.0366 1165.86 34.4829 1165.86 36.241C1165.86 37.9992 1164 39.4455 1161.74 39.4455C1159.48 39.4171 1157.62 37.9992 1157.62 36.241Z" fill="url(#paint89_linear)"/>
<path d="M1159.11 63.4651H1155.47V360.57H1159.11V63.4651Z" fill="url(#paint90_linear)"/>
<path d="M1153.2 63.6351C1153.2 61.8769 1155.06 60.4307 1157.33 60.4307C1159.59 60.4307 1161.45 61.8769 1161.45 63.6351C1161.45 65.3933 1159.59 66.8395 1157.33 66.8395C1155.06 66.8395 1153.2 65.3933 1153.2 63.6351Z" fill="url(#paint91_linear)"/>
<path d="M1216.31 69.3345H1212.67V354.699H1216.31V69.3345Z" fill="url(#paint92_linear)"/>
<path d="M1210.37 69.5047C1210.37 67.7465 1212.19 66.3003 1214.49 66.3003C1216.75 66.3003 1218.61 67.7465 1218.61 69.5047C1218.61 71.2629 1216.75 72.7092 1214.49 72.7092C1212.23 72.7092 1210.37 71.2629 1210.37 69.5047Z" fill="url(#paint93_linear)"/>
<path d="M1162.62 35.4473H1158.97V388.587H1162.62V35.4473Z" fill="url(#paint94_linear)"/>
<path d="M1156.67 35.617C1156.67 33.8588 1158.53 32.4126 1160.79 32.4126C1163.05 32.4126 1164.91 33.8588 1164.91 35.617C1164.91 37.3752 1163.05 38.8215 1160.79 38.8215C1158.53 38.8215 1156.67 37.3752 1156.67 35.617Z" fill="url(#paint95_linear)"/>
<path d="M1183.77 44.3521H1180.13V379.655H1183.77V44.3521Z" fill="url(#paint96_linear)"/>
<path d="M1177.83 44.5221C1177.83 42.7639 1179.69 41.3176 1181.95 41.3176C1184.21 41.3176 1186.07 42.7355 1186.07 44.5221C1186.07 46.2802 1184.21 47.7265 1181.95 47.7265C1179.65 47.7265 1177.83 46.2802 1177.83 44.5221Z" fill="url(#paint97_linear)"/>
<path d="M1239.88 63.238H1236.23V360.825H1239.88V63.238Z" fill="url(#paint98_linear)"/>
<path d="M1233.93 63.3795C1233.93 61.6213 1235.79 60.175 1238.05 60.175C1240.32 60.175 1242.18 61.6213 1242.18 63.3795C1242.18 65.1377 1240.32 66.5839 1238.05 66.5839C1235.76 66.5839 1233.93 65.166 1233.93 63.3795Z" fill="url(#paint99_linear)"/>
<path d="M1219.56 59.5227H1215.91V364.511H1219.56V59.5227Z" fill="url(#paint100_linear)"/>
<path d="M1213.61 59.6927C1213.61 57.9345 1215.47 56.4883 1217.74 56.4883C1220 56.4883 1221.86 57.9345 1221.86 59.6927C1221.86 61.4509 1220 62.8971 1217.74 62.8971C1215.47 62.8688 1213.61 61.4509 1213.61 59.6927Z" fill="url(#paint101_linear)"/>
<path d="M1243.56 6.04053H1239.92V417.994H1243.56V6.04053Z" fill="url(#paint102_linear)"/>
<path d="M1237.62 6.21053C1237.62 4.45235 1239.48 3.0061 1241.74 3.0061C1244 3.0061 1245.86 4.45235 1245.86 6.21053C1245.86 7.96872 1244 9.41496 1241.74 9.41496C1239.48 9.3866 1237.62 7.96872 1237.62 6.21053Z" fill="url(#paint103_linear)"/>
<path d="M1303.02 80.7629H1299.38V343.299H1303.02V80.7629Z" fill="url(#paint104_linear)"/>
<path d="M1297.08 80.9044C1297.08 79.1462 1298.94 77.7 1301.2 77.7C1303.46 77.7 1305.32 79.1462 1305.32 80.9044C1305.32 82.6626 1303.46 84.1088 1301.2 84.1088C1298.9 84.1088 1297.08 82.6909 1297.08 80.9044Z" fill="url(#paint105_linear)"/>
<path d="M1374.89 87.824H1371.24V336.21H1374.89V87.824Z" fill="url(#paint106_linear)"/>
<path d="M1368.98 87.994C1368.98 86.2358 1370.84 84.7896 1373.1 84.7896C1375.36 84.7896 1377.22 86.2358 1377.22 87.994C1377.22 89.7522 1375.36 91.1984 1373.1 91.1984C1370.8 91.1701 1368.98 89.7522 1368.98 87.994Z" fill="url(#paint107_linear)"/>
<path d="M1382 14.6328H1378.35V409.402H1382V14.6328Z" fill="url(#paint108_linear)"/>
<path d="M1376.06 14.8033C1376.06 13.0451 1377.92 11.5989 1380.18 11.5989C1382.44 11.5989 1384.3 13.0451 1384.3 14.8033C1384.3 16.5615 1382.44 18.0077 1380.18 18.0077C1377.92 18.0077 1376.06 16.5615 1376.06 14.8033Z" fill="url(#paint109_linear)"/>
<path d="M1343.99 77.2749H1340.34V346.731H1343.99V77.2749Z" fill="url(#paint110_linear)"/>
<path d="M1338.04 77.4449C1338.04 75.6867 1339.9 74.2405 1342.17 74.2405C1344.43 74.2405 1346.29 75.6867 1346.29 77.4449C1346.29 79.2031 1344.43 80.6493 1342.17 80.6493C1339.87 80.6493 1338.04 79.2031 1338.04 77.4449Z" fill="url(#paint111_linear)"/>
<path d="M1412.53 27.1101H1408.89V396.924H1412.53V27.1101Z" fill="url(#paint112_linear)"/>
<path d="M1406.62 27.2801C1406.62 25.5219 1408.49 24.0757 1410.75 24.0757C1413.01 24.0757 1414.87 25.4936 1414.87 27.2801C1414.87 29.0383 1413.01 30.4845 1410.75 30.4845C1408.49 30.4845 1406.62 29.0383 1406.62 27.2801Z" fill="url(#paint113_linear)"/>
<path d="M1439.93 11.4851H1436.28V412.549H1439.93V11.4851Z" fill="url(#paint114_linear)"/>
<path d="M1433.98 11.6549C1433.98 9.89669 1435.84 8.45044 1438.11 8.45044C1440.37 8.45044 1442.23 9.89669 1442.23 11.6549C1442.23 13.4131 1440.37 14.8593 1438.11 14.8593C1435.84 14.8593 1433.98 13.4131 1433.98 11.6549Z" fill="url(#paint115_linear)"/>
<path d="M1429.5 57.7937H1425.85V366.213H1429.5V57.7937Z" fill="url(#paint116_linear)"/>
<path d="M1423.59 57.9635C1423.59 56.2053 1425.45 54.759 1427.71 54.759C1429.97 54.759 1431.83 56.2053 1431.83 57.9635C1431.83 59.7216 1429.97 61.1679 1427.71 61.1679C1425.41 61.1679 1423.59 59.7216 1423.59 57.9635Z" fill="url(#paint117_linear)"/>
<path d="M1437.63 67.2078H1433.98V356.826H1437.63V67.2078Z" fill="url(#paint118_linear)"/>
<path d="M1431.69 67.3778C1431.69 65.6196 1433.55 64.1733 1435.81 64.1733C1438.07 64.1733 1439.93 65.6196 1439.93 67.3778C1439.93 69.136 1438.11 70.5822 1435.81 70.5822C1433.51 70.5822 1431.69 69.136 1431.69 67.3778Z" fill="url(#paint119_linear)"/>
<defs>
<linearGradient id="paint0_linear" x1="18.31" y1="392.558" x2="18.31" y2="28.0818" gradientUnits="userSpaceOnUse">
<stop stop-color="#0F1145" stop-opacity="0"/>
<stop offset="1" stop-color="white" stop-opacity="0.07"/>
</linearGradient>
<linearGradient id="paint1_linear" x1="18.3196" y1="34.8808" x2="18.3196" y2="28.4107" gradientUnits="userSpaceOnUse">
<stop stop-color="#0F1145" stop-opacity="0"/>
<stop offset="1" stop-color="white" stop-opacity="0.07"/>
</linearGradient>
<linearGradient id="paint2_linear" x1="44.2102" y1="346.525" x2="44.2102" y2="75.008" gradientUnits="userSpaceOnUse">
<stop stop-color="#0F1145" stop-opacity="0"/>
<stop offset="1" stop-color="white" stop-opacity="0.07"/>
</linearGradient>
<linearGradient id="paint3_linear" x1="44.2564" y1="80.9055" x2="44.2564" y2="74.4353" gradientUnits="userSpaceOnUse">
<stop stop-color="#0F1145" stop-opacity="0"/>
<stop offset="1" stop-color="white" stop-opacity="0.07"/>
</linearGradient>
<linearGradient id="paint4_linear" x1="30.0563" y1="390.09" x2="30.0563" y2="30.6239" gradientUnits="userSpaceOnUse">
<stop stop-color="#0F1145" stop-opacity="0"/>
<stop offset="1" stop-color="white" stop-opacity="0.07"/>
</linearGradient>
<linearGradient id="paint5_linear" x1="30.0659" y1="37.3474" x2="30.0659" y2="30.8772" gradientUnits="userSpaceOnUse">
<stop stop-color="#0F1145" stop-opacity="0"/>
<stop offset="1" stop-color="white" stop-opacity="0.07"/>
</linearGradient>
<linearGradient id="paint6_linear" x1="101.665" y1="344.086" x2="101.665" y2="77.4928" gradientUnits="userSpaceOnUse">
<stop stop-color="#0F1145" stop-opacity="0"/>
<stop offset="1" stop-color="white" stop-opacity="0.07"/>
</linearGradient>
<linearGradient id="paint7_linear" x1="101.674" y1="83.3437" x2="101.674" y2="76.8735" gradientUnits="userSpaceOnUse">
<stop stop-color="#0F1145" stop-opacity="0"/>
<stop offset="1" stop-color="white" stop-opacity="0.07"/>
</linearGradient>
<linearGradient id="paint8_linear" x1="163.278" y1="367.456" x2="163.278" y2="53.6826" gradientUnits="userSpaceOnUse">
<stop stop-color="#0F1145" stop-opacity="0"/>
<stop offset="1" stop-color="white" stop-opacity="0.07"/>
</linearGradient>
<linearGradient id="paint9_linear" x1="163.288" y1="59.977" x2="163.288" y2="53.5068" gradientUnits="userSpaceOnUse">
<stop stop-color="#0F1145" stop-opacity="0"/>
<stop offset="1" stop-color="white" stop-opacity="0.07"/>
</linearGradient>
<linearGradient id="paint10_linear" x1="89.8456" y1="396.188" x2="89.8456" y2="24.383" gradientUnits="userSpaceOnUse">
<stop stop-color="#0F1145" stop-opacity="0"/>
<stop offset="1" stop-color="white" stop-opacity="0.07"/>
</linearGradient>
<linearGradient id="paint11_linear" x1="89.8553" y1="31.2509" x2="89.8553" y2="24.7808" gradientUnits="userSpaceOnUse">
<stop stop-color="#0F1145" stop-opacity="0"/>
<stop offset="1" stop-color="white" stop-opacity="0.07"/>
</linearGradient>
<linearGradient id="paint12_linear" x1="111.697" y1="370.803" x2="111.697" y2="50.2732" gradientUnits="userSpaceOnUse">
<stop stop-color="#0F1145" stop-opacity="0"/>
<stop offset="1" stop-color="white" stop-opacity="0.07"/>
</linearGradient>
<linearGradient id="paint13_linear" x1="111.706" y1="56.6311" x2="111.706" y2="50.1609" gradientUnits="userSpaceOnUse">
<stop stop-color="#0F1145" stop-opacity="0"/>
<stop offset="1" stop-color="white" stop-opacity="0.07"/>
</linearGradient>
<linearGradient id="paint14_linear" x1="206.907" y1="336.599" x2="206.907" y2="85.093" gradientUnits="userSpaceOnUse">
<stop stop-color="#0F1145" stop-opacity="0"/>
<stop offset="1" stop-color="white" stop-opacity="0.07"/>
</linearGradient>
<linearGradient id="paint15_linear" x1="206.953" y1="90.8305" x2="206.953" y2="84.3604" gradientUnits="userSpaceOnUse">
<stop stop-color="#0F1145" stop-opacity="0"/>
<stop offset="1" stop-color="white" stop-opacity="0.07"/>
</linearGradient>
<linearGradient id="paint16_linear" x1="188.85" y1="335.521" x2="188.85" y2="86.1906" gradientUnits="userSpaceOnUse">
<stop stop-color="#0F1145" stop-opacity="0"/>
<stop offset="1" stop-color="white" stop-opacity="0.07"/>
</linearGradient>
<linearGradient id="paint17_linear" x1="188.86" y1="91.9077" x2="188.86" y2="85.4375" gradientUnits="userSpaceOnUse">
<stop stop-color="#0F1145" stop-opacity="0"/>
<stop offset="1" stop-color="white" stop-opacity="0.07"/>
</linearGradient>
<linearGradient id="paint18_linear" x1="284.717" y1="365.528" x2="284.717" y2="55.6193" gradientUnits="userSpaceOnUse">
<stop stop-color="#0F1145" stop-opacity="0"/>
<stop offset="1" stop-color="white" stop-opacity="0.07"/>
</linearGradient>
<linearGradient id="paint19_linear" x1="284.727" y1="61.906" x2="284.727" y2="55.4358" gradientUnits="userSpaceOnUse">
<stop stop-color="#0F1145" stop-opacity="0"/>
<stop offset="1" stop-color="white" stop-opacity="0.07"/>
</linearGradient>
<linearGradient id="paint20_linear" x1="296.828" y1="346.639" x2="296.828" y2="74.8352" gradientUnits="userSpaceOnUse">
<stop stop-color="#0F1145" stop-opacity="0"/>
<stop offset="1" stop-color="white" stop-opacity="0.07"/>
</linearGradient>
<linearGradient id="paint21_linear" x1="296.874" y1="80.7634" x2="296.874" y2="74.2932" gradientUnits="userSpaceOnUse">
<stop stop-color="#0F1145" stop-opacity="0"/>
<stop offset="1" stop-color="white" stop-opacity="0.07"/>
</linearGradient>
<linearGradient id="paint22_linear" x1="244.882" y1="373.072" x2="244.882" y2="47.9325" gradientUnits="userSpaceOnUse">
<stop stop-color="#0F1145" stop-opacity="0"/>
<stop offset="1" stop-color="white" stop-opacity="0.07"/>
</linearGradient>
<linearGradient id="paint23_linear" x1="244.891" y1="54.3623" x2="244.891" y2="47.8921" gradientUnits="userSpaceOnUse">
<stop stop-color="#0F1145" stop-opacity="0"/>
<stop offset="1" stop-color="white" stop-opacity="0.07"/>
</linearGradient>
<linearGradient id="paint24_linear" x1="356.617" y1="421.033" x2="356.617" y2="-0.901153" gradientUnits="userSpaceOnUse">
<stop stop-color="#0F1145" stop-opacity="0"/>
<stop offset="1" stop-color="white" stop-opacity="0.07"/>
</linearGradient>
<linearGradient id="paint25_linear" x1="356.627" y1="6.40937" x2="356.627" y2="-0.0607844" gradientUnits="userSpaceOnUse">
<stop stop-color="#0F1145" stop-opacity="0"/>
<stop offset="1" stop-color="white" stop-opacity="0.07"/>
</linearGradient>
<linearGradient id="paint26_linear" x1="369.349" y1="397.549" x2="369.349" y2="22.9961" gradientUnits="userSpaceOnUse">
<stop stop-color="#0F1145" stop-opacity="0"/>
<stop offset="1" stop-color="white" stop-opacity="0.07"/>
</linearGradient>
<linearGradient id="paint27_linear" x1="369.358" y1="29.8896" x2="369.358" y2="23.4194" gradientUnits="userSpaceOnUse">
<stop stop-color="#0F1145" stop-opacity="0"/>
<stop offset="1" stop-color="white" stop-opacity="0.07"/>
</linearGradient>
<linearGradient id="paint28_linear" x1="400.939" y1="409.688" x2="400.939" y2="10.6573" gradientUnits="userSpaceOnUse">
<stop stop-color="#0F1145" stop-opacity="0"/>
<stop offset="1" stop-color="white" stop-opacity="0.07"/>
</linearGradient>
<linearGradient id="paint29_linear" x1="400.949" y1="17.7524" x2="400.949" y2="11.2822" gradientUnits="userSpaceOnUse">
<stop stop-color="#0F1145" stop-opacity="0"/>
<stop offset="1" stop-color="white" stop-opacity="0.07"/>
</linearGradient>
<linearGradient id="paint30_linear" x1="391.564" y1="399.137" x2="391.564" y2="21.4065" gradientUnits="userSpaceOnUse">
<stop stop-color="#0F1145" stop-opacity="0"/>
<stop offset="1" stop-color="white" stop-opacity="0.07"/>
</linearGradient>
<linearGradient id="paint31_linear" x1="391.574" y1="28.3015" x2="391.574" y2="21.8313" gradientUnits="userSpaceOnUse">
<stop stop-color="#0F1145" stop-opacity="0"/>
<stop offset="1" stop-color="white" stop-opacity="0.07"/>
</linearGradient>
<linearGradient id="paint32_linear" x1="373.653" y1="363.939" x2="373.653" y2="57.2657" gradientUnits="userSpaceOnUse">
<stop stop-color="#0F1145" stop-opacity="0"/>
<stop offset="1" stop-color="white" stop-opacity="0.07"/>
</linearGradient>
<linearGradient id="paint33_linear" x1="373.663" y1="63.4933" x2="373.663" y2="57.0232" gradientUnits="userSpaceOnUse">
<stop stop-color="#0F1145" stop-opacity="0"/>
<stop offset="1" stop-color="white" stop-opacity="0.07"/>
</linearGradient>
<linearGradient id="paint34_linear" x1="405.317" y1="393.635" x2="405.317" y2="26.9834" gradientUnits="userSpaceOnUse">
<stop stop-color="#0F1145" stop-opacity="0"/>
<stop offset="1" stop-color="white" stop-opacity="0.07"/>
</linearGradient>
<linearGradient id="paint35_linear" x1="405.327" y1="33.8027" x2="405.327" y2="27.3325" gradientUnits="userSpaceOnUse">
<stop stop-color="#0F1145" stop-opacity="0"/>
<stop offset="1" stop-color="white" stop-opacity="0.07"/>
</linearGradient>
<linearGradient id="paint36_linear" x1="413.561" y1="342.639" x2="413.561" y2="78.9377" gradientUnits="userSpaceOnUse">
<stop stop-color="#0F1145" stop-opacity="0"/>
<stop offset="1" stop-color="white" stop-opacity="0.07"/>
</linearGradient>
<linearGradient id="paint37_linear" x1="413.571" y1="84.79" x2="413.571" y2="78.3198" gradientUnits="userSpaceOnUse">
<stop stop-color="#0F1145" stop-opacity="0"/>
<stop offset="1" stop-color="white" stop-opacity="0.07"/>
</linearGradient>
<linearGradient id="paint38_linear" x1="490.933" y1="375.001" x2="490.933" y2="45.9682" gradientUnits="userSpaceOnUse">
<stop stop-color="#0F1145" stop-opacity="0"/>
<stop offset="1" stop-color="white" stop-opacity="0.07"/>
</linearGradient>
<linearGradient id="paint39_linear" x1="490.943" y1="52.434" x2="490.943" y2="45.9639" gradientUnits="userSpaceOnUse">
<stop stop-color="#0F1145" stop-opacity="0"/>
<stop offset="1" stop-color="white" stop-opacity="0.07"/>
</linearGradient>
<linearGradient id="paint40_linear" x1="514.207" y1="337.053" x2="514.207" y2="84.6308" gradientUnits="userSpaceOnUse">
<stop stop-color="#0F1145" stop-opacity="0"/>
<stop offset="1" stop-color="white" stop-opacity="0.07"/>
</linearGradient>
<linearGradient id="paint41_linear" x1="514.217" y1="90.3771" x2="514.217" y2="83.907" gradientUnits="userSpaceOnUse">
<stop stop-color="#0F1145" stop-opacity="0"/>
<stop offset="1" stop-color="white" stop-opacity="0.07"/>
</linearGradient>
<linearGradient id="paint42_linear" x1="544.704" y1="342.243" x2="544.704" y2="79.3713" gradientUnits="userSpaceOnUse">
<stop stop-color="#0F1145" stop-opacity="0"/>
<stop offset="1" stop-color="white" stop-opacity="0.07"/>
</linearGradient>
<linearGradient id="paint43_linear" x1="544.713" y1="85.1875" x2="544.713" y2="78.7173" gradientUnits="userSpaceOnUse">
<stop stop-color="#0F1145" stop-opacity="0"/>
<stop offset="1" stop-color="white" stop-opacity="0.07"/>
</linearGradient>
<linearGradient id="paint44_linear" x1="593.622" y1="384.445" x2="593.622" y2="36.3455" gradientUnits="userSpaceOnUse">
<stop stop-color="#0F1145" stop-opacity="0"/>
<stop offset="1" stop-color="white" stop-opacity="0.07"/>
</linearGradient>
<linearGradient id="paint45_linear" x1="593.632" y1="42.9904" x2="593.632" y2="36.5203" gradientUnits="userSpaceOnUse">
<stop stop-color="#0F1145" stop-opacity="0"/>
<stop offset="1" stop-color="white" stop-opacity="0.07"/>
</linearGradient>
<linearGradient id="paint46_linear" x1="639.732" y1="419.898" x2="639.732" y2="0.225808" gradientUnits="userSpaceOnUse">
<stop stop-color="#0F1145" stop-opacity="0"/>
<stop offset="1" stop-color="white" stop-opacity="0.07"/>
</linearGradient>
<linearGradient id="paint47_linear" x1="639.741" y1="7.5434" x2="639.741" y2="1.07325" gradientUnits="userSpaceOnUse">
<stop stop-color="#0F1145" stop-opacity="0"/>
<stop offset="1" stop-color="white" stop-opacity="0.07"/>
</linearGradient>
<linearGradient id="paint48_linear" x1="650.894" y1="370.293" x2="650.894" y2="50.7645" gradientUnits="userSpaceOnUse">
<stop stop-color="#0F1145" stop-opacity="0"/>
<stop offset="1" stop-color="white" stop-opacity="0.07"/>
</linearGradient>
<linearGradient id="paint49_linear" x1="650.904" y1="57.1413" x2="650.904" y2="50.6711" gradientUnits="userSpaceOnUse">
<stop stop-color="#0F1145" stop-opacity="0"/>
<stop offset="1" stop-color="white" stop-opacity="0.07"/>
</linearGradient>
<linearGradient id="paint50_linear" x1="661.036" y1="395.535" x2="661.036" y2="25.0761" gradientUnits="userSpaceOnUse">
<stop stop-color="#0F1145" stop-opacity="0"/>
<stop offset="1" stop-color="white" stop-opacity="0.07"/>
</linearGradient>
<linearGradient id="paint51_linear" x1="661.082" y1="31.903" x2="661.082" y2="25.4329" gradientUnits="userSpaceOnUse">
<stop stop-color="#0F1145" stop-opacity="0"/>
<stop offset="1" stop-color="white" stop-opacity="0.07"/>
</linearGradient>
<linearGradient id="paint52_linear" x1="667.821" y1="349.107" x2="667.821" y2="72.3788" gradientUnits="userSpaceOnUse">
<stop stop-color="#0F1145" stop-opacity="0"/>
<stop offset="1" stop-color="white" stop-opacity="0.07"/>
</linearGradient>
<linearGradient id="paint53_linear" x1="667.83" y1="78.3251" x2="667.83" y2="71.855" gradientUnits="userSpaceOnUse">
<stop stop-color="#0F1145" stop-opacity="0"/>
<stop offset="1" stop-color="white" stop-opacity="0.07"/>
</linearGradient>
<linearGradient id="paint54_linear" x1="726.443" y1="415.021" x2="726.443" y2="5.22534" gradientUnits="userSpaceOnUse">
<stop stop-color="#0F1145" stop-opacity="0"/>
<stop offset="1" stop-color="white" stop-opacity="0.07"/>
</linearGradient>
<linearGradient id="paint55_linear" x1="726.452" y1="12.4216" x2="726.452" y2="5.95142" gradientUnits="userSpaceOnUse">
<stop stop-color="#0F1145" stop-opacity="0"/>
<stop offset="1" stop-color="white" stop-opacity="0.07"/>
</linearGradient>
<linearGradient id="paint56_linear" x1="738.262" y1="358.919" x2="738.262" y2="62.3802" gradientUnits="userSpaceOnUse">
<stop stop-color="#0F1145" stop-opacity="0"/>
<stop offset="1" stop-color="white" stop-opacity="0.07"/>
</linearGradient>
<linearGradient id="paint57_linear" x1="738.272" y1="68.5126" x2="738.272" y2="62.0425" gradientUnits="userSpaceOnUse">
<stop stop-color="#0F1145" stop-opacity="0"/>
<stop offset="1" stop-color="white" stop-opacity="0.07"/>
</linearGradient>
<linearGradient id="paint58_linear" x1="784.481" y1="338.896" x2="784.481" y2="82.7809" gradientUnits="userSpaceOnUse">
<stop stop-color="#0F1145" stop-opacity="0"/>
<stop offset="1" stop-color="white" stop-opacity="0.07"/>
</linearGradient>
<linearGradient id="paint59_linear" x1="784.491" y1="88.5334" x2="784.491" y2="82.0632" gradientUnits="userSpaceOnUse">
<stop stop-color="#0F1145" stop-opacity="0"/>
<stop offset="1" stop-color="white" stop-opacity="0.07"/>
</linearGradient>
<linearGradient id="paint60_linear" x1="739.502" y1="419.87" x2="739.502" y2="0.254666" gradientUnits="userSpaceOnUse">
<stop stop-color="#0F1145" stop-opacity="0"/>
<stop offset="1" stop-color="white" stop-opacity="0.07"/>
</linearGradient>
<linearGradient id="paint61_linear" x1="739.512" y1="7.57197" x2="739.512" y2="1.10181" gradientUnits="userSpaceOnUse">
<stop stop-color="#0F1145" stop-opacity="0"/>
<stop offset="1" stop-color="white" stop-opacity="0.07"/>
</linearGradient>
<linearGradient id="paint62_linear" x1="799.073" y1="378.064" x2="799.073" y2="42.8757" gradientUnits="userSpaceOnUse">
<stop stop-color="#0F1145" stop-opacity="0"/>
<stop offset="1" stop-color="white" stop-opacity="0.07"/>
</linearGradient>
<linearGradient id="paint63_linear" x1="799.082" y1="49.3713" x2="799.082" y2="42.9011" gradientUnits="userSpaceOnUse">
<stop stop-color="#0F1145" stop-opacity="0"/>
<stop offset="1" stop-color="white" stop-opacity="0.07"/>
</linearGradient>
<linearGradient id="paint64_linear" x1="854.266" y1="383.084" x2="854.266" y2="37.7612" gradientUnits="userSpaceOnUse">
<stop stop-color="#0F1145" stop-opacity="0"/>
<stop offset="1" stop-color="white" stop-opacity="0.07"/>
</linearGradient>
<linearGradient id="paint65_linear" x1="854.275" y1="44.3517" x2="854.275" y2="37.8816" gradientUnits="userSpaceOnUse">
<stop stop-color="#0F1145" stop-opacity="0"/>
<stop offset="1" stop-color="white" stop-opacity="0.07"/>
</linearGradient>
<linearGradient id="paint66_linear" x1="885.382" y1="399.818" x2="885.382" y2="20.6555" gradientUnits="userSpaceOnUse">
<stop stop-color="#0F1145" stop-opacity="0"/>
<stop offset="1" stop-color="white" stop-opacity="0.07"/>
</linearGradient>
<linearGradient id="paint67_linear" x1="885.428" y1="27.5927" x2="885.428" y2="21.1226" gradientUnits="userSpaceOnUse">
<stop stop-color="#0F1145" stop-opacity="0"/>
<stop offset="1" stop-color="white" stop-opacity="0.07"/>
</linearGradient>
<linearGradient id="paint68_linear" x1="814.759" y1="409.036" x2="814.759" y2="11.2646" gradientUnits="userSpaceOnUse">
<stop stop-color="#0F1145" stop-opacity="0"/>
<stop offset="1" stop-color="white" stop-opacity="0.07"/>
</linearGradient>
<linearGradient id="paint69_linear" x1="814.768" y1="18.3762" x2="814.768" y2="11.906" gradientUnits="userSpaceOnUse">
<stop stop-color="#0F1145" stop-opacity="0"/>
<stop offset="1" stop-color="white" stop-opacity="0.07"/>
</linearGradient>
<linearGradient id="paint70_linear" x1="886.805" y1="337.62" x2="886.805" y2="84.0238" gradientUnits="userSpaceOnUse">
<stop stop-color="#0F1145" stop-opacity="0"/>
<stop offset="1" stop-color="white" stop-opacity="0.07"/>
</linearGradient>
<linearGradient id="paint71_linear" x1="886.851" y1="89.7809" x2="886.851" y2="83.3108" gradientUnits="userSpaceOnUse">
<stop stop-color="#0F1145" stop-opacity="0"/>
<stop offset="1" stop-color="white" stop-opacity="0.07"/>
</linearGradient>
<linearGradient id="paint72_linear" x1="875.934" y1="360.537" x2="875.934" y2="60.7052" gradientUnits="userSpaceOnUse">
<stop stop-color="#0F1145" stop-opacity="0"/>
<stop offset="1" stop-color="white" stop-opacity="0.07"/>
</linearGradient>
<linearGradient id="paint73_linear" x1="875.98" y1="66.8967" x2="875.98" y2="60.4265" gradientUnits="userSpaceOnUse">
<stop stop-color="#0F1145" stop-opacity="0"/>
<stop offset="1" stop-color="white" stop-opacity="0.07"/>
</linearGradient>
<linearGradient id="paint74_linear" x1="949.549" y1="410.227" x2="949.549" y2="10.0511" gradientUnits="userSpaceOnUse">
<stop stop-color="#0F1145" stop-opacity="0"/>
<stop offset="1" stop-color="white" stop-opacity="0.07"/>
</linearGradient>
<linearGradient id="paint75_linear" x1="949.595" y1="17.1855" x2="949.595" y2="10.7153" gradientUnits="userSpaceOnUse">
<stop stop-color="#0F1145" stop-opacity="0"/>
<stop offset="1" stop-color="white" stop-opacity="0.07"/>
</linearGradient>
<linearGradient id="paint76_linear" x1="913.362" y1="334.386" x2="913.362" y2="87.3755" gradientUnits="userSpaceOnUse">
<stop stop-color="#0F1145" stop-opacity="0"/>
<stop offset="1" stop-color="white" stop-opacity="0.07"/>
</linearGradient>
<linearGradient id="paint77_linear" x1="913.371" y1="93.0424" x2="913.371" y2="86.5723" gradientUnits="userSpaceOnUse">
<stop stop-color="#0F1145" stop-opacity="0"/>
<stop offset="1" stop-color="white" stop-opacity="0.07"/>
</linearGradient>
<linearGradient id="paint78_linear" x1="977.966" y1="362.323" x2="977.966" y2="58.8844" gradientUnits="userSpaceOnUse">
<stop stop-color="#0F1145" stop-opacity="0"/>
<stop offset="1" stop-color="white" stop-opacity="0.07"/>
</linearGradient>
<linearGradient id="paint79_linear" x1="977.976" y1="65.11" x2="977.976" y2="58.6399" gradientUnits="userSpaceOnUse">
<stop stop-color="#0F1145" stop-opacity="0"/>
<stop offset="1" stop-color="white" stop-opacity="0.07"/>
</linearGradient>
<linearGradient id="paint80_linear" x1="985.043" y1="356.991" x2="985.043" y2="64.3454" gradientUnits="userSpaceOnUse">
<stop stop-color="#0F1145" stop-opacity="0"/>
<stop offset="1" stop-color="white" stop-opacity="0.07"/>
</linearGradient>
<linearGradient id="paint81_linear" x1="985.089" y1="70.4413" x2="985.089" y2="63.9712" gradientUnits="userSpaceOnUse">
<stop stop-color="#0F1145" stop-opacity="0"/>
<stop offset="1" stop-color="white" stop-opacity="0.07"/>
</linearGradient>
<linearGradient id="paint82_linear" x1="1061.1" y1="396.131" x2="1061.1" y2="24.4407" gradientUnits="userSpaceOnUse">
<stop stop-color="#0F1145" stop-opacity="0"/>
<stop offset="1" stop-color="white" stop-opacity="0.07"/>
</linearGradient>
<linearGradient id="paint83_linear" x1="1061.11" y1="31.3078" x2="1061.11" y2="24.8377" gradientUnits="userSpaceOnUse">
<stop stop-color="#0F1145" stop-opacity="0"/>
<stop offset="1" stop-color="white" stop-opacity="0.07"/>
</linearGradient>
<linearGradient id="paint84_linear" x1="1015.58" y1="418.367" x2="1015.58" y2="1.81494" gradientUnits="userSpaceOnUse">
<stop stop-color="#0F1145" stop-opacity="0"/>
<stop offset="1" stop-color="white" stop-opacity="0.07"/>
</linearGradient>
<linearGradient id="paint85_linear" x1="1015.59" y1="9.0749" x2="1015.59" y2="2.60474" gradientUnits="userSpaceOnUse">
<stop stop-color="#0F1145" stop-opacity="0"/>
<stop offset="1" stop-color="white" stop-opacity="0.07"/>
</linearGradient>
<linearGradient id="paint86_linear" x1="1057.45" y1="412.581" x2="1057.45" y2="7.68124" gradientUnits="userSpaceOnUse">
<stop stop-color="#0F1145" stop-opacity="0"/>
<stop offset="1" stop-color="white" stop-opacity="0.07"/>
</linearGradient>
<linearGradient id="paint87_linear" x1="1057.46" y1="14.8598" x2="1057.46" y2="8.38966" gradientUnits="userSpaceOnUse">
<stop stop-color="#0F1145" stop-opacity="0"/>
<stop offset="1" stop-color="white" stop-opacity="0.07"/>
</linearGradient>
<linearGradient id="paint88_linear" x1="1161.75" y1="387.991" x2="1161.75" y2="32.7336" gradientUnits="userSpaceOnUse">
<stop stop-color="#0F1145" stop-opacity="0"/>
<stop offset="1" stop-color="white" stop-opacity="0.07"/>
</linearGradient>
<linearGradient id="paint89_linear" x1="1161.76" y1="39.446" x2="1161.76" y2="32.9758" gradientUnits="userSpaceOnUse">
<stop stop-color="#0F1145" stop-opacity="0"/>
<stop offset="1" stop-color="white" stop-opacity="0.07"/>
</linearGradient>
<linearGradient id="paint90_linear" x1="1157.3" y1="360.593" x2="1157.3" y2="60.6472" gradientUnits="userSpaceOnUse">
<stop stop-color="#0F1145" stop-opacity="0"/>
<stop offset="1" stop-color="white" stop-opacity="0.07"/>
</linearGradient>
<linearGradient id="paint91_linear" x1="1157.34" y1="66.84" x2="1157.34" y2="60.3699" gradientUnits="userSpaceOnUse">
<stop stop-color="#0F1145" stop-opacity="0"/>
<stop offset="1" stop-color="white" stop-opacity="0.07"/>
</linearGradient>
<linearGradient id="paint92_linear" x1="1214.5" y1="354.722" x2="1214.5" y2="66.628" gradientUnits="userSpaceOnUse">
<stop stop-color="#0F1145" stop-opacity="0"/>
<stop offset="1" stop-color="white" stop-opacity="0.07"/>
</linearGradient>
<linearGradient id="paint93_linear" x1="1214.51" y1="72.7097" x2="1214.51" y2="66.2395" gradientUnits="userSpaceOnUse">
<stop stop-color="#0F1145" stop-opacity="0"/>
<stop offset="1" stop-color="white" stop-opacity="0.07"/>
</linearGradient>
<linearGradient id="paint94_linear" x1="1160.8" y1="388.615" x2="1160.8" y2="32.0979" gradientUnits="userSpaceOnUse">
<stop stop-color="#0F1145" stop-opacity="0"/>
<stop offset="1" stop-color="white" stop-opacity="0.07"/>
</linearGradient>
<linearGradient id="paint95_linear" x1="1160.81" y1="38.822" x2="1160.81" y2="32.3518" gradientUnits="userSpaceOnUse">
<stop stop-color="#0F1145" stop-opacity="0"/>
<stop offset="1" stop-color="white" stop-opacity="0.07"/>
</linearGradient>
<linearGradient id="paint96_linear" x1="1181.96" y1="379.681" x2="1181.96" y2="41.1719" gradientUnits="userSpaceOnUse">
<stop stop-color="#0F1145" stop-opacity="0"/>
<stop offset="1" stop-color="white" stop-opacity="0.07"/>
</linearGradient>
<linearGradient id="paint97_linear" x1="1181.97" y1="47.727" x2="1181.97" y2="41.2568" gradientUnits="userSpaceOnUse">
<stop stop-color="#0F1145" stop-opacity="0"/>
<stop offset="1" stop-color="white" stop-opacity="0.07"/>
</linearGradient>
<linearGradient id="paint98_linear" x1="1238.06" y1="360.848" x2="1238.06" y2="60.4156" gradientUnits="userSpaceOnUse">
<stop stop-color="#0F1145" stop-opacity="0"/>
<stop offset="1" stop-color="white" stop-opacity="0.07"/>
</linearGradient>
<linearGradient id="paint99_linear" x1="1238.07" y1="66.5844" x2="1238.07" y2="60.1143" gradientUnits="userSpaceOnUse">
<stop stop-color="#0F1145" stop-opacity="0"/>
<stop offset="1" stop-color="white" stop-opacity="0.07"/>
</linearGradient>
<linearGradient id="paint100_linear" x1="1217.74" y1="364.535" x2="1217.74" y2="56.6301" gradientUnits="userSpaceOnUse">
<stop stop-color="#0F1145" stop-opacity="0"/>
<stop offset="1" stop-color="white" stop-opacity="0.07"/>
</linearGradient>
<linearGradient id="paint101_linear" x1="1217.75" y1="62.8976" x2="1217.75" y2="56.4275" gradientUnits="userSpaceOnUse">
<stop stop-color="#0F1145" stop-opacity="0"/>
<stop offset="1" stop-color="white" stop-opacity="0.07"/>
</linearGradient>
<linearGradient id="paint102_linear" x1="1241.75" y1="418.027" x2="1241.75" y2="2.13338" gradientUnits="userSpaceOnUse">
<stop stop-color="#0F1145" stop-opacity="0"/>
<stop offset="1" stop-color="white" stop-opacity="0.07"/>
</linearGradient>
<linearGradient id="paint103_linear" x1="1241.76" y1="9.41547" x2="1241.76" y2="2.94532" gradientUnits="userSpaceOnUse">
<stop stop-color="#0F1145" stop-opacity="0"/>
<stop offset="1" stop-color="white" stop-opacity="0.07"/>
</linearGradient>
<linearGradient id="paint104_linear" x1="1301.21" y1="343.32" x2="1301.21" y2="78.2729" gradientUnits="userSpaceOnUse">
<stop stop-color="#0F1145" stop-opacity="0"/>
<stop offset="1" stop-color="white" stop-opacity="0.07"/>
</linearGradient>
<linearGradient id="paint105_linear" x1="1301.22" y1="84.1093" x2="1301.22" y2="77.6392" gradientUnits="userSpaceOnUse">
<stop stop-color="#0F1145" stop-opacity="0"/>
<stop offset="1" stop-color="white" stop-opacity="0.07"/>
</linearGradient>
<linearGradient id="paint106_linear" x1="1373.07" y1="336.23" x2="1373.07" y2="85.4682" gradientUnits="userSpaceOnUse">
<stop stop-color="#0F1145" stop-opacity="0"/>
<stop offset="1" stop-color="white" stop-opacity="0.07"/>
</linearGradient>
<linearGradient id="paint107_linear" x1="1373.12" y1="91.1989" x2="1373.12" y2="84.7288" gradientUnits="userSpaceOnUse">
<stop stop-color="#0F1145" stop-opacity="0"/>
<stop offset="1" stop-color="white" stop-opacity="0.07"/>
</linearGradient>
<linearGradient id="paint108_linear" x1="1380.19" y1="409.433" x2="1380.19" y2="10.8887" gradientUnits="userSpaceOnUse">
<stop stop-color="#0F1145" stop-opacity="0"/>
<stop offset="1" stop-color="white" stop-opacity="0.07"/>
</linearGradient>
<linearGradient id="paint109_linear" x1="1380.19" y1="18.0082" x2="1380.19" y2="11.5381" gradientUnits="userSpaceOnUse">
<stop stop-color="#0F1145" stop-opacity="0"/>
<stop offset="1" stop-color="white" stop-opacity="0.07"/>
</linearGradient>
<linearGradient id="paint110_linear" x1="1342.17" y1="346.752" x2="1342.17" y2="74.7193" gradientUnits="userSpaceOnUse">
<stop stop-color="#0F1145" stop-opacity="0"/>
<stop offset="1" stop-color="white" stop-opacity="0.07"/>
</linearGradient>
<linearGradient id="paint111_linear" x1="1342.18" y1="80.6498" x2="1342.18" y2="74.1797" gradientUnits="userSpaceOnUse">
<stop stop-color="#0F1145" stop-opacity="0"/>
<stop offset="1" stop-color="white" stop-opacity="0.07"/>
</linearGradient>
<linearGradient id="paint112_linear" x1="1410.72" y1="396.953" x2="1410.72" y2="23.6026" gradientUnits="userSpaceOnUse">
<stop stop-color="#0F1145" stop-opacity="0"/>
<stop offset="1" stop-color="white" stop-opacity="0.07"/>
</linearGradient>
<linearGradient id="paint113_linear" x1="1410.76" y1="30.4851" x2="1410.76" y2="24.0149" gradientUnits="userSpaceOnUse">
<stop stop-color="#0F1145" stop-opacity="0"/>
<stop offset="1" stop-color="white" stop-opacity="0.07"/>
</linearGradient>
<linearGradient id="paint114_linear" x1="1438.11" y1="412.581" x2="1438.11" y2="7.68124" gradientUnits="userSpaceOnUse">
<stop stop-color="#0F1145" stop-opacity="0"/>
<stop offset="1" stop-color="white" stop-opacity="0.07"/>
</linearGradient>
<linearGradient id="paint115_linear" x1="1438.12" y1="14.8598" x2="1438.12" y2="8.38966" gradientUnits="userSpaceOnUse">
<stop stop-color="#0F1145" stop-opacity="0"/>
<stop offset="1" stop-color="white" stop-opacity="0.07"/>
</linearGradient>
<linearGradient id="paint116_linear" x1="1427.68" y1="366.238" x2="1427.68" y2="54.8685" gradientUnits="userSpaceOnUse">
<stop stop-color="#0F1145" stop-opacity="0"/>
<stop offset="1" stop-color="white" stop-opacity="0.07"/>
</linearGradient>
<linearGradient id="paint117_linear" x1="1427.73" y1="61.1684" x2="1427.73" y2="54.6982" gradientUnits="userSpaceOnUse">
<stop stop-color="#0F1145" stop-opacity="0"/>
<stop offset="1" stop-color="white" stop-opacity="0.07"/>
</linearGradient>
<linearGradient id="paint118_linear" x1="1435.82" y1="356.849" x2="1435.82" y2="64.4609" gradientUnits="userSpaceOnUse">
<stop stop-color="#0F1145" stop-opacity="0"/>
<stop offset="1" stop-color="white" stop-opacity="0.07"/>
</linearGradient>
<linearGradient id="paint119_linear" x1="1435.83" y1="70.5827" x2="1435.83" y2="64.1126" gradientUnits="userSpaceOnUse">
<stop stop-color="#0F1145" stop-opacity="0"/>
<stop offset="1" stop-color="white" stop-opacity="0.07"/>
</linearGradient>
</defs>
</svg>
